{"title":"Edge Of Tomorrow 2014 BDRip 1080p x264 Dual Audio 5.1 Ch. [Hindi","uid":11129538,"size":2157662545,"categoryP":"video","categoryS":"hd___movies","magnet":"?xt=urn:btih:15bf5dab93ae294e75e5f4c12c6b14f037c7c147&amp;dn=Edge+Of+Tomorrow+2014+BDRip+1080p+x264+Dual+Audio+5.1+Ch.+%5BHindi&amp;tr=udp%3A%2F%2Ftracker.openbittorrent.com%3A80&amp;tr=udp%3A%2F%2Fopen.demonii.com%3A1337&amp;tr=udp%3A%2F%2Ftracker.coppersurfer.tk%3A6969&amp;tr=udp%3A%2F%2Fexodus.desync.com%3A6969","seeders":2,"leechers":3,"uploader":"Dj_YsB","files":9,"time":1412019034,"description":"Edge Of Tomorrow 2014 BDRip 1080p x264 Dual Audio 5.1 Ch. [Hindi-Eng] YsB TeaM FL\n &lt;a href=&quot;\nhttp://i.imgur.com/ADspynN.jpg&quot; rel=&quot;nofollow&quot; target=&quot;_NEW&quot;&gt;\nhttp://i.imgur.com/ADspynN.jpg&lt;/a&gt;\n\n\nInfo:\nGeneral\nComplete name                            : Edge Of Tomorrow 2014 BDRip 1080p x264 Dual Audio 5.1 Ch. [Hindi-Eng] YsB TeaM FL.mkv\nFormat                                   : Matroska\nFormat version                           : Version 4 / Version 2\nFile size                                : 1.98 GiB\nDuration                                 : 1h 53mn\nOverall bit rate                         : 2 498 Kbps\nMovie name                               : Edge Of Tomorrow BDRip 1080p x264 Dual Audio 5.1 Ch. [Hindi-Eng] YsB TeaM FL\n\nVideo\nID                                       : 1\nFormat                                   : AVC\nDuration                                 : 1h 53mn\nBit rate                                 : 2 048 Kbps\nWidth                                    : 1 920 pixels\nHeight                                   : 800 pixels\nDisplay aspect ratio                     : 2.40:1\nFrame rate mode                          : Constant\nFrame rate                               : 23.976 fps\nStream size                              : 1.59 GiB (80%)\nTitle                                    : YsB TeaM FL\n\nAudio #1\nID                                       : 2\nFormat                                   : AC-3\nDuration                                 : 1h 53mn\nBit rate mode                            : Constant\nBit rate                                 : 224 Kbps\nChannel(s)                               : 6 channels\nChannel positions                        : Front: L C R, Side: L R, LFE\nSampling rate                            : 48.0 KHz\nStream size                              : 182 MiB (9%)\nTitle                                    : YsB TeaM FL\nLanguage                                 : Hindi\n\nAudio #2\nID                                       : 3\nFormat                                   : AC-3\nDuration                                 : 1h 53mn\nBit rate mode                            : Constant\nBit rate                                 : 224 Kbps\nChannel(s)                               : 6 channels\nChannel positions                        : Front: L C R, Side: L R, LFE\nSampling rate                            : 48.0 KHz\nStream size                              : 182 MiB (9%)\nTitle                                    : YsB TeaM FL\nLanguage                                 : English\n\nText #1\nID                                       : 4\nFormat                                   : UTF-8\nCodec ID                                 : S_TEXT/UTF8\nCodec ID/Info                            : UTF-8 Plain Text\nTitle                                    : YsB TeaM FL [Full]\nLanguage                                 : English\nDefault                                  : No\nForced                                   : No\n\nText #2\nID                                       : 5\nFormat                                   : UTF-8\nCodec ID                                 : S_TEXT/UTF8\nCodec ID/Info                            : UTF-8 Plain Text\nTitle                                    : YsB TeaM FL [SDH]\nLanguage                                 : English\nDefault                                  : No\nForced                                   : No\n\nText #3\nID                                       : 6\nFormat                                   : UTF-8\nCodec ID                                 : S_TEXT/UTF8\nCodec ID/Info                            : UTF-8 Plain Text\nTitle                                    : YsB TeaM FL [ SDH (Colored)]\nLanguage                                 : English\nDefault                                  : No\nForced                                   : No\n\nMenu\n00:00:00.000                             : en:00:00:00.000\n00:10:28.169                             : en:00:10:28.169\n00:17:39.100                             : en:00:17:39.100\n00:24:50.197                             : en:00:24:50.197\n00:35:57.947                             : en:00:35:57.947\n00:46:27.284                             : en:00:46:27.284\n00:54:34.771                             : en:00:54:34.771\n01:04:59.562                             : en:01:04:59.562\n01:12:53.077                             : en:01:12:53.077\n01:23:08.901                             : en:01:23:08.901\n01:32:34.132                             : en:01:32:34.132\n01:42:53.584                             : en:01:42:53.584\n01:45:46.215                             : en:01:45:46.215\n\nScreenShot: &lt;a href=&quot;\nhttp://i.imgur.com/SvnRrmN.jpg&quot; rel=&quot;nofollow&quot; target=&quot;_NEW&quot;&gt;\nhttp://i.imgur.com/SvnRrmN.jpg&lt;/a&gt; &lt;a href=&quot;\nhttp://i.imgur.com/npMO5FB.jpg&quot; rel=&quot;nofollow&quot; target=&quot;_NEW&quot;&gt;\nhttp://i.imgur.com/npMO5FB.jpg&lt;/a&gt; &lt;a href=&quot;\nhttp://i.imgur.com/mmUnbCp.jpg&quot; rel=&quot;nofollow&quot; target=&quot;_NEW&quot;&gt;\nhttp://i.imgur.com/mmUnbCp.jpg&lt;/a&gt;","torrent":{"xt":"urn:btih:15bf5dab93ae294e75e5f4c12c6b14f037c7c147","amp;dn":"Edge+Of+Tomorrow+2014+BDRip+1080p+x264+Dual+Audio+5.1+Ch.+%5BHindi","amp;tr":["udp%3A%2F%2Ftracker.openbittorrent.com%3A80","udp%3A%2F%2Fopen.demonii.com%3A1337","udp%3A%2F%2Ftracker.coppersurfer.tk%3A6969","udp%3A%2F%2Fexodus.desync.com%3A6969"],"infoHash":"15bf5dab93ae294e75e5f4c12c6b14f037c7c147","infoHashBuffer":{"type":"Buffer","data":[21,191,93,171,147,174,41,78,117,229,244,193,44,107,20,240,55,199,193,71]},"announce":[],"urlList":[]}}